<svg xmlns="http://www.w3.org/2000/svg" viewBox="0 0 512 512">
  <defs>
    <linearGradient id="bgGrad" x1="0%" y1="0%" x2="100%" y2="100%">
      <stop offset="0%" style="stop-color:#6366F1"/>
      <stop offset="100%" style="stop-color:#4F46E5"/>
    </linearGradient>
  </defs>
  
  <!-- Circle background -->
  <circle cx="256" cy="256" r="256" fill="url(#bgGrad)"/>
  
  <!-- Main large star (4-pointed) -->
  <path d="M256 80 L280 200 L400 224 L280 248 L256 368 L232 248 L112 224 L232 200 Z" 
        fill="white"/>
  
  <!-- Small star top-right with plus -->
  <g transform="translate(370, 130)">
    <!-- Small 4-pointed star -->
    <path d="M0 -32 L8 -8 L32 0 L8 8 L0 32 L-8 8 L-32 0 L-8 -8 Z" 
          fill="white"/>
    <!-- Plus sign -->
    <rect x="36" y="-6" width="28" height="12" rx="4" fill="white"/>
    <rect x="44" y="-14" width="12" height="28" rx="4" fill="white"/>
  </g>
  
  <!-- Tiny sparkle bottom-left -->
  <path d="M140 340 L148 360 L168 368 L148 376 L140 396 L132 376 L112 368 L132 360 Z" 
        fill="white" opacity="0.8"/>
</svg>
